<svg xmlns="http://www.w3.org/2000/svg" viewBox="0 0 32 32">
  <defs>
    <linearGradient id="fg" x1="0%" y1="0%" x2="100%" y2="100%">
      <stop offset="0%" stop-color="#06d6e0"/>
      <stop offset="100%" stop-color="#a855f7"/>
    </linearGradient>
  </defs>
  <!-- Minimal hood -->
  <path d="M16 2 C8 2 5 9 5 15 Q5 20 9 23 L9 26 Q9 28 11 28 L21 28 Q23 28 23 26 L23 23 Q27 20 27 15 C27 9 24 2 16 2 Z"
        fill="url(#fg)" opacity="0.12" stroke="url(#fg)" stroke-width="0.8"/>
  <!-- Headband -->
  <rect x="5" y="11.5" width="22" height="3" rx="1.5" fill="url(#fg)" opacity="0.4"/>
  <!-- Mask shadow -->
  <path d="M8 16.5 Q8 23 16 24 Q24 23 24 16.5" fill="#0f172a" opacity="0.5"/>
  <!-- Left eye -->
  <circle cx="12" cy="18" r="2.8" fill="none" stroke="#06d6e0" stroke-width="0.5" opacity="0.3"/>
  <circle cx="12" cy="18" r="1" fill="#06d6e0" opacity="0.9"/>
  <!-- Right eye -->
  <circle cx="20" cy="18" r="2.8" fill="none" stroke="#a855f7" stroke-width="0.5" opacity="0.3"/>
  <circle cx="20" cy="18" r="1" fill="#a855f7" opacity="0.9"/>
</svg>
